<svg width="214" height="40" viewBox="0 0 214 40" fill="none" xmlns="http://www.w3.org/2000/svg">
<g clip-path="url(#clip0_23_550)">
<path d="M95.2458 29.8888C95.2458 29.9586 95.2458 30.0041 95.2215 30.074C95.1775 30.2577 95.0378 30.4429 94.8769 30.5355C94.7387 30.6053 94.6005 30.6509 94.4609 30.6509C94.1846 30.6509 93.884 30.5127 93.7458 30.2577L91.6674 25.9414V26.034C91.6674 26.4713 91.3228 26.8645 90.884 26.8645H85.3198C84.8825 26.8645 84.5136 26.4713 84.5136 26.034V25.9414L82.4595 30.2577C82.3441 30.5112 82.0435 30.6509 81.7657 30.6509C81.6275 30.6509 81.4894 30.6053 81.3512 30.5355C81.166 30.4429 81.0278 30.2592 80.9595 30.074C80.9352 30.0041 80.9352 29.9586 80.9352 29.9115C80.9352 29.7506 80.9823 29.6124 81.0749 29.4728L87.3997 16.1081C87.5151 15.8545 87.8157 15.7164 88.092 15.7164C88.3683 15.7164 88.6462 15.8545 88.7828 16.1081L95.179 29.4728C95.2002 29.6124 95.2488 29.7506 95.2488 29.8888M91.508 25.5725L88.1148 18.393L84.7216 25.5027C84.8841 25.3175 85.0905 25.2248 85.3213 25.2248H90.8157C91.1148 25.2248 91.3243 25.3645 91.5065 25.571M112.306 16.4527V29.8417C112.306 30.1651 112.075 30.4642 111.774 30.5795C111.682 30.6038 111.591 30.6266 111.475 30.6266C111.267 30.6266 111.014 30.5325 110.851 30.3032L101.756 18.8089V29.8417C101.756 30.2562 101.387 30.6281 100.948 30.6281C100.487 30.6281 100.116 30.2577 100.116 29.8417V18.0468C100.116 17.7007 100.279 17.4228 100.578 17.3074L100.279 16.9628C100.163 16.8231 100.116 16.6637 100.116 16.5013C100.116 16.2705 100.232 16.017 100.462 15.8545C100.6 15.7391 100.764 15.6936 100.925 15.6936C101.156 15.6936 101.411 15.7862 101.572 15.9927L110.666 27.5113V16.4542C110.666 16.0625 111.035 15.6936 111.475 15.6936C111.916 15.6936 112.307 16.0625 112.307 16.4542M131.417 29.8888C131.417 29.9586 131.417 30.0041 131.394 30.074C131.349 30.2577 131.21 30.4429 131.048 30.5355C130.91 30.6053 130.773 30.6509 130.633 30.6509C130.357 30.6509 130.057 30.5127 129.918 30.2577L127.84 25.9414V26.034C127.84 26.4713 127.494 26.8645 127.057 26.8645H121.492C121.052 26.8645 120.685 26.4713 120.685 26.034V25.9414L118.629 30.2577C118.514 30.5112 118.215 30.6509 117.937 30.6509C117.797 30.6509 117.66 30.6053 117.521 30.5355C117.336 30.4429 117.197 30.2592 117.129 30.074C117.108 30.0041 117.108 29.9586 117.108 29.9115C117.108 29.7506 117.155 29.6124 117.246 29.4728L123.571 16.1081C123.686 15.8545 123.985 15.7164 124.263 15.7164C124.541 15.7164 124.816 15.8545 124.954 16.1081L131.35 29.4728C131.373 29.6124 131.418 29.7506 131.418 29.8888M127.679 25.5725L124.286 18.393L120.893 25.5027C121.054 25.3175 121.262 25.2248 121.492 25.2248H126.987C127.286 25.2248 127.494 25.3645 127.679 25.571M143.605 28.9171C144.067 28.9171 144.434 29.2633 144.434 29.702C144.434 30.118 144.067 30.5325 143.605 30.5325H137.095C136.633 30.5325 136.289 30.118 136.289 29.702V16.4512C136.289 16.0595 136.633 15.6906 137.095 15.6906C137.511 15.6906 137.881 16.0595 137.881 16.4512V28.9171H143.607H143.605ZM159.762 16.521C159.762 16.6607 159.74 16.7988 159.646 16.937L154.498 25.2248V29.8872C154.498 30.3017 154.106 30.6479 153.666 30.6479C153.226 30.6479 152.86 30.3017 152.86 29.8872V25.1079C152.86 24.9455 152.86 24.739 152.998 24.5538C153.022 24.5295 153.045 24.5083 153.068 24.4384C152.998 24.4612 152.954 24.4612 152.884 24.4612C152.606 24.4612 152.329 24.323 152.19 24.0695L147.734 16.937C147.666 16.7988 147.619 16.6607 147.619 16.521C147.619 16.2432 147.759 15.9896 148.012 15.8287C148.128 15.7604 148.266 15.7133 148.404 15.7133C148.68 15.7133 148.934 15.8743 149.142 16.105L153.69 23.4227L158.215 16.105C158.4 15.8515 158.676 15.7133 158.952 15.7133C159.091 15.7133 159.229 15.7604 159.367 15.8287C159.62 15.9912 159.759 16.2447 159.759 16.521M173.099 15.8287C173.562 15.8287 173.908 16.1976 173.908 16.6607C173.908 17.0767 173.562 17.4441 173.099 17.4441H168.459C168.804 17.5595 169.036 17.8358 169.036 18.2062V29.8402C169.036 30.2546 168.666 30.6479 168.227 30.6479C167.766 30.6479 167.421 30.2546 167.421 29.8402V18.2062C167.421 17.8373 167.65 17.5595 167.998 17.4441H163.334C162.895 17.4441 162.551 17.0752 162.551 16.6607C162.551 16.1976 162.897 15.8287 163.334 15.8287H173.099ZM180.162 18.0696V29.8645C180.162 30.3032 179.816 30.6494 179.377 30.6494C178.961 30.6494 178.545 30.3032 178.545 29.8645V18.0696C178.545 17.6536 178.845 17.353 179.169 17.2604C178.823 17.1905 178.545 16.8687 178.545 16.4982C178.545 16.0595 178.915 15.7133 179.377 15.7133C179.838 15.7133 180.162 16.0595 180.162 16.4982C180.162 16.8672 179.908 17.1905 179.562 17.2604C179.908 17.3515 180.162 17.6536 180.162 18.0696ZM197.75 27.0027C197.958 27.0027 198.166 27.0953 198.304 27.2334C198.465 27.3944 198.556 27.6023 198.556 27.8331C198.556 28.0396 198.465 28.2719 198.304 28.41C196.941 29.7719 194.979 30.6266 192.995 30.6266C191.818 30.6266 190.64 30.3488 189.578 29.8402C187.153 28.6636 185.515 26.1008 185.515 23.3301C185.515 21.7375 185.999 20.1677 186.924 18.9198C188.401 16.9127 190.687 15.689 193.294 15.689C195.21 15.689 197.056 16.4497 198.418 17.8358C198.556 17.9739 198.626 18.1819 198.626 18.3899C198.626 18.5979 198.556 18.8287 198.418 18.9668C198.233 19.1278 198.049 19.2219 197.841 19.2219C197.633 19.2219 197.425 19.1278 197.264 18.9668C196.179 17.7432 194.518 17.2816 193.132 17.2816C189.899 17.2816 187.106 19.9825 187.106 23.2831C187.106 26.1692 189.691 29.0082 192.899 29.0082C194.424 29.0082 195.485 28.5922 197.172 27.2304C197.333 27.0922 197.541 26.9996 197.749 26.9996M202.271 28.4313C202.271 28.2005 202.341 27.9698 202.479 27.8073C202.663 27.6464 202.848 27.5765 203.033 27.5765C203.219 27.5765 203.402 27.6464 203.635 27.7845C205.318 28.8928 206.196 29.0082 208.042 29.0082C209.496 29.0082 211.55 28.1762 211.598 26.4227C211.503 23.7218 207.281 24.2517 205.273 23.236C204.004 22.612 202.803 21.3671 202.803 19.8185C202.803 17.1875 205.365 15.6632 207.858 15.6632C209.267 15.6632 210.835 15.8242 212.105 16.6334C212.358 16.7958 212.496 17.0251 212.496 17.3014C212.496 17.441 212.474 17.5792 212.404 17.6961C212.243 17.9724 211.942 18.1121 211.666 18.1121C211.528 18.1121 211.412 18.0878 211.297 18.0195C210.35 17.3029 209.08 17.2589 207.949 17.2589C206.449 17.2589 204.579 17.8601 204.439 19.6834C204.348 21.0452 206.033 22.0381 207.879 22.3372C210.21 22.7062 213.166 23.6307 213.166 26.5624C213.166 29.1934 210.442 30.6251 207.902 30.6251C205.988 30.6251 204.116 30.2091 202.502 28.9854C202.341 28.8473 202.271 28.6393 202.271 28.4313ZM29.4425 13.0853C24.0225 13.0853 19.6303 17.479 19.6303 22.899C19.6303 28.3189 24.024 32.7126 29.4425 32.7126C34.8609 32.7126 39.2561 28.3189 39.2561 22.899C39.2561 17.479 34.8624 13.0853 29.4425 13.0853ZM29.4425 26.1707C27.6358 26.1707 26.1723 24.7056 26.1723 22.899C26.1723 21.0923 27.6358 19.6272 29.4425 19.6272C31.2491 19.6272 32.7127 21.0923 32.7127 22.899C32.7127 24.7056 31.2476 26.1707 29.4425 26.1707ZM13.0869 16.357C13.0869 18.1637 11.6218 19.6272 9.81518 19.6272C8.00852 19.6272 6.54346 18.1637 6.54346 16.357C6.54346 14.5504 8.00852 13.0853 9.81518 13.0853C11.6218 13.0853 13.0869 14.5504 13.0869 16.357ZM55.6132 19.6272C53.805 19.6272 52.3415 21.0923 52.3415 22.899C52.3415 21.0923 50.8779 19.6272 49.0713 19.6272C47.2646 19.6272 45.7995 18.1637 45.7995 16.357C45.7995 14.5504 47.2646 13.0853 49.0713 13.0853C50.8779 13.0853 52.3415 14.5504 52.3415 16.357C54.1496 16.357 55.6132 17.8221 55.6132 19.6272ZM62.1566 19.6272C60.9466 19.6272 59.8915 18.9683 59.3252 17.9921C59.0473 17.5124 58.8849 16.9537 58.8849 16.357C58.8849 14.5504 60.35 13.0853 62.1566 13.0853C63.9633 13.0853 65.4268 14.5504 65.4268 16.357C65.4268 16.9537 65.2644 17.5109 64.9865 17.9921C64.4203 18.9699 63.3651 19.6272 62.1566 19.6272ZM64.9865 21.2623C65.2644 21.7436 65.4268 22.3023 65.4268 22.8974C65.4268 23.4926 65.2644 24.0513 64.9865 24.5325C64.4203 25.5103 63.3651 26.1677 62.1566 26.1677C60.9466 26.1677 59.8915 26.8265 59.3252 27.8043C59.0473 28.284 58.8849 28.8427 58.8849 29.4394C57.0767 29.4394 55.6132 27.9758 55.6132 26.1677C57.4198 26.1677 58.8849 24.7026 58.8849 22.8959C58.8849 22.2993 59.0473 21.7421 59.3252 21.2608C59.8915 20.2831 60.9451 19.6257 62.1566 19.6257C63.3681 19.6257 64.4203 20.2846 64.9865 21.2608M12.6436 27.8043C12.9229 28.284 13.0869 28.8427 13.0869 29.4394C13.0869 31.2445 11.6218 32.7111 9.81518 32.7111C8.00852 32.7111 6.54346 31.246 6.54346 29.4394C6.54346 28.8427 6.7059 28.2855 6.98525 27.8043C7.55154 26.8265 8.60517 26.1677 9.81518 26.1677C11.0252 26.1677 12.0788 26.8265 12.6451 27.8043M46.5769 36.7267C46.5769 38.5334 45.1118 39.9984 43.3051 39.9984C41.4985 39.9984 40.0334 38.5334 40.0334 36.7267C40.0334 34.9201 41.4985 33.455 43.3051 33.455C45.1118 33.455 46.5769 34.9186 46.5769 36.7267Z" fill="white"/>
<path d="M12.6451 24.5341C12.9244 25.0154 13.0854 25.5725 13.0854 26.1692C13.0854 26.7659 12.9244 27.323 12.6451 27.8058C12.0788 26.8281 11.0252 26.1692 9.81516 26.1692C11.0252 26.1692 12.0788 25.5118 12.6451 24.5341ZM6.98372 24.5341C6.70589 25.0154 6.54344 25.5725 6.54344 26.1692C6.54344 26.7659 6.70437 27.323 6.98372 27.8058C7.55152 26.8281 8.60364 26.1692 9.81516 26.1692C8.60515 26.1692 7.55152 25.5118 6.98372 24.5341ZM58.8849 22.9005C58.8849 21.0923 57.4198 19.6288 55.6132 19.6288C53.8065 19.6288 52.3414 21.0939 52.3414 22.9005C52.3414 24.7072 53.805 26.1707 55.6132 26.1707C57.4213 26.1707 58.8849 24.7057 58.8849 22.9005ZM64.9865 27.8073C64.4202 26.8296 63.3651 26.1707 62.1551 26.1707C60.9451 26.1707 59.8914 26.8296 59.3236 27.8073C59.0458 28.2886 58.8834 28.8458 58.8834 29.4424C58.8834 31.2491 60.3469 32.7126 62.1536 32.7126C63.9602 32.7126 65.4238 31.2476 65.4238 29.4424C65.4238 28.8458 65.2613 28.2886 64.9835 27.8073M3.27172 0C1.46506 0 0 1.46506 0 3.2702C0 5.07534 1.46506 6.54192 3.27172 6.54192C5.07838 6.54192 6.54344 5.07686 6.54344 3.2702C6.54344 1.46354 5.07838 0 3.27172 0Z" fill="#00A5E6"/>
<path d="M64.985 24.5341C65.2644 25.0154 65.4268 25.5726 65.4268 26.1692C65.4268 26.7659 65.2644 27.323 64.985 27.8058C64.4187 26.8281 63.3651 26.1692 62.1551 26.1692C63.3651 26.1692 64.4187 25.5103 64.985 24.5341ZM59.3252 17.9907C59.0473 18.4719 58.8849 19.0291 58.8849 19.6258C58.8849 20.2224 59.0473 20.7796 59.3252 21.2609C59.8915 20.2831 60.9451 19.6258 62.1551 19.6258C60.9451 19.6258 59.8915 18.9669 59.3252 17.9907ZM62.1551 19.6258C63.3651 19.6258 64.4202 20.2847 64.985 21.2609C65.2644 20.7796 65.4268 20.2224 65.4268 19.6258C65.4268 19.0291 65.2644 18.4719 64.985 17.9907C64.4187 18.9684 63.3636 19.6258 62.1536 19.6258M9.81365 19.6258C8.00699 19.6258 6.54193 21.0908 6.54193 22.8975C6.54193 23.4941 6.70438 24.0513 6.98373 24.5326C7.55002 25.5103 8.60365 26.1677 9.81365 26.1677C11.0237 26.1677 12.0773 25.5088 12.6436 24.5326C12.9214 24.0513 13.0854 23.4926 13.0854 22.8975C13.0854 21.0908 11.6203 19.6258 9.81365 19.6258ZM49.0697 19.6258C47.2631 19.6258 45.798 21.0908 45.798 22.8975C45.798 23.4941 45.9605 24.0513 46.2398 24.5326C45.9605 25.0139 45.798 25.571 45.798 26.1677C45.798 26.7643 45.9605 27.3215 46.2398 27.8043C45.962 28.2841 45.798 28.8428 45.798 29.4394C45.798 31.2445 47.2631 32.7096 49.0697 32.7096C50.8764 32.7096 52.3399 31.2445 52.3399 29.4394C52.3399 28.8412 52.1775 28.2841 51.8997 27.8043C52.1775 27.3215 52.3399 26.7643 52.3399 26.1677C52.3399 25.571 52.1775 25.0139 51.8997 24.5326C52.1775 24.0513 52.3399 23.4926 52.3399 22.8975C52.3399 21.0908 50.8764 19.6258 49.0697 19.6258ZM75.2405 6.54041C73.4323 6.54041 71.9687 8.00547 71.9687 9.81061C71.9687 11.6157 73.4323 13.0823 75.2405 13.0823C77.0486 13.0823 78.5122 11.6173 78.5122 9.81061C78.5122 8.00395 77.0486 6.54041 75.2405 6.54041Z" fill="#96C869"/>
</g>
<defs>
<clipPath id="clip0_23_550">
<rect width="213.166" height="40" fill="white"/>
</clipPath>
</defs>
</svg>
