<svg width="318" height="40" viewBox="0 0 318 40" fill="none" xmlns="http://www.w3.org/2000/svg">
<g clip-path="url(#clip0_13_153)">
<path d="M49.6577 24.8289C52.8854 24.8289 55.4998 27.4432 55.4998 30.6709C55.4998 33.8987 52.8854 36.513 49.6577 36.513C46.4299 36.513 43.8156 33.8987 43.8156 30.6709C43.8156 27.4432 46.4299 24.8289 49.6577 24.8289Z" fill="#96C869"/>
<path d="M33.592 0C23.3793 0 14.89 7.52533 13.382 17.3254C5.57919 20.2063 0 27.7207 0 36.513H8.76312C8.76312 30.0685 14.0064 24.8288 20.4473 24.8288C26.8882 24.8288 32.1314 30.0685 32.1314 36.513H40.8946C40.8946 26.0046 32.9274 17.3218 22.7147 16.1935C24.4199 11.8485 28.6518 8.76312 33.592 8.76312C40.0365 8.76312 45.2761 14.0064 45.2761 20.4473H54.0392C54.0392 9.17207 44.8672 0 33.592 0ZM70.3715 31.8759H65.7234V4.56778H72.7558L80.3724 21.1702L87.9525 4.56778H94.9448V31.8759H90.2967V11.4067L81.5847 29.5317H79.047L70.3752 11.4067V31.8759H70.3715ZM119.244 21.3674C119.244 22.1488 119.168 22.89 119.01 23.5545H103.617C103.967 26.3295 106.702 28.126 109.477 28.126C111.587 28.126 113.227 27.4614 114.479 26.1324L117.057 29.1009C114.947 31.0945 112.252 32.1862 109.167 32.1862C103.423 32.1862 99.1657 27.3409 99.1657 21.4806C99.1657 15.6203 103.149 11.0123 109.126 10.775C116.276 10.775 119.244 16.712 119.244 21.3638M114.87 19.487C114.556 16.6755 112.058 14.8389 109.203 14.8389C106.585 14.8389 103.89 16.6353 103.617 19.487H114.87ZM133.152 15.3464H132.761C128.814 15.3464 126.861 18.3953 126.861 22.9265V31.8722H122.446V11.089H126.861V13.236C128.383 11.8302 130.611 11.089 132.097 10.8517C132.447 10.8115 132.761 10.8115 133.152 10.8115V15.3428V15.3464ZM149.911 28.7065V28.1588C148.699 29.7618 146.355 30.9338 143.894 30.9338C141.276 30.9338 139.049 29.9553 137.409 28.042C135.73 26.1287 134.868 23.7042 134.868 20.8526C134.868 18.0009 135.73 15.6166 137.409 13.7033C139.049 11.79 141.236 10.775 143.777 10.775C146.162 10.775 148.232 11.633 149.911 13.2761V11.089H154.366V28.7869C154.366 32.4601 153.504 35.1949 151.671 37.1082C149.875 39.0215 147.571 40 144.719 40C140.345 40 136.829 37.6559 135.343 33.4751L139.25 31.7188C140.228 34.4537 142.065 35.8193 144.719 35.8193C148.195 35.8193 149.915 33.435 149.915 28.7102M140.655 24.9201C141.634 25.9754 142.959 26.6801 144.486 26.6801C146.125 26.6801 147.454 26.1324 148.393 24.9603C149.408 23.8284 149.915 22.4226 149.915 20.7029C149.915 18.9831 149.408 17.5372 148.393 16.3651C147.418 15.1931 146.089 14.6052 144.486 14.6052C142.883 14.6052 141.634 15.1931 140.655 16.4016C139.757 17.6504 139.25 19.0598 139.25 20.6992C139.25 22.3387 139.797 23.7481 140.655 24.9201ZM178.045 21.3638C178.045 22.1451 177.968 22.8864 177.811 23.5509H162.421C162.771 26.3259 165.506 28.1223 168.281 28.1223C170.392 28.1223 172.031 27.4578 173.283 26.1287L175.861 29.0972C173.751 31.0908 171.056 32.1826 167.971 32.1826C162.227 32.1826 157.97 27.3373 157.97 21.4769C157.97 15.6166 161.953 11.0087 167.931 10.7713C175.08 10.7713 178.048 16.7084 178.048 21.3601M173.674 19.4833C173.36 16.6718 170.863 14.8352 168.007 14.8352C165.389 14.8352 162.695 16.6317 162.421 19.4833H173.674ZM191.956 15.3428H191.566C187.618 15.3428 185.665 18.3916 185.665 22.9229V31.8686H181.251V11.0853H185.665V13.2323C187.188 11.8266 189.415 11.0853 190.901 10.848C191.251 10.8078 191.565 10.8078 191.956 10.8078V15.3391V15.3428ZM226.297 20.1077V31.8649H221.959V19.9872C221.959 17.2926 220.436 15.0251 217.351 15.0251C214.693 15.0251 212.78 17.2926 212.78 19.9872V31.8649H208.442V19.9872C208.442 17.4094 206.682 15.0251 203.87 15.0251C201.216 15.0251 199.299 17.2926 199.299 19.9872V31.8649H194.925V11.0817H199.299V13.0753C200.274 11.7864 201.8 10.7713 203.87 10.7713C206.098 10.7713 208.792 11.5126 210.629 13.5463C212.466 11.5162 215.16 10.7713 217.347 10.7713C221.174 10.7713 226.293 12.7649 226.293 20.1077M247.116 31.8649H243.052V29.4806C241.45 31.3574 239.379 32.1753 236.761 32.1753C234.728 32.1753 233.011 31.5509 231.642 30.3387C230.277 29.0899 229.612 27.4103 229.612 25.3765C229.612 21.236 232.697 19.1657 237.619 19.1657H242.698V18.5778C242.698 16 241.369 14.7111 238.598 14.7111C236.842 14.7111 234.965 15.4523 232.935 16.8581L230.905 13.8895C233.406 11.8193 236.177 10.764 239.186 10.764C243.874 10.764 247.116 13.1848 247.116 18.4975V31.8649ZM242.702 22.7622H238.247C235.436 22.7622 234.03 23.4267 234.03 25.2633C234.03 27.1 235.476 28.1552 237.977 28.1552C240.478 28.1552 242.706 26.5924 242.706 24.0913V22.7622H242.702ZM262.393 15.3391H262.003C258.056 15.3391 256.102 18.388 256.102 22.9192V31.8649H251.688V11.0817H256.102V13.2287C257.625 11.8229 259.852 11.0817 261.338 10.8444C261.689 10.8042 262.003 10.8042 262.393 10.8042V15.3355V15.3391ZM269.74 31.8649H265.325V4.00913H269.74V19.4797L277.356 11.0817H283.14L275.523 19.403L283.571 31.8649H278.182L272.555 23.0361L269.74 26.0046V31.8649ZM304.548 21.3565C304.548 22.1378 304.471 22.8791 304.314 23.5436H288.92C289.271 26.3186 292.005 28.115 294.78 28.115C296.891 28.115 298.53 27.4505 299.783 26.1214L302.361 29.0899C300.25 31.0835 297.555 32.1753 294.47 32.1753C288.727 32.1753 284.469 27.33 284.469 21.4696C284.469 15.6093 288.453 11.0014 294.43 10.764C301.579 10.764 304.548 16.701 304.548 21.3528M300.173 19.476C299.859 16.6645 297.362 14.8279 294.507 14.8279C291.889 14.8279 289.194 16.6244 288.92 19.476H300.173ZM312.559 15.0215V25.099C312.559 26.5851 313.417 28.031 315.06 28.0675C316.309 28.0675 317.678 27.2862 317.678 27.2862V31.4267C316.703 31.9343 315.684 32.168 314.669 32.168C311.193 32.168 308.144 29.4331 308.144 24.9785V15.0178H305.526V11.1876H305.8C307.089 11.1876 308.144 10.366 308.144 8.88361V4.00183H312.559V11.0744H317.678V15.0215H312.559Z" fill="white"/>
</g>
<defs>
<clipPath id="clip0_13_153">
<rect width="317.678" height="40" fill="white"/>
</clipPath>
</defs>
</svg>
